<?xml version="1.0" standalone="no"?>
<!DOCTYPE svg PUBLIC "-//W3C//DTD SVG 20010904//EN"
 "http://www.w3.org/TR/2001/REC-SVG-20010904/DTD/svg10.dtd">
<svg version="1.0" xmlns="http://www.w3.org/2000/svg"
 width="512.000000pt" height="512.000000pt" viewBox="0 0 512.000000 512.000000"
 preserveAspectRatio="xMidYMid meet">
<metadata>
Created by potrace 1.14, written by Peter Selinger 2001-2017
</metadata>
<g transform="translate(0.000000,512.000000) scale(0.100000,-0.100000)"
fill="#000000" stroke="none">
<path d="M2715 5109 c-337 -35 -697 -181 -980 -398 -86 -65 -237 -213 -308
-301 -249 -309 -394 -675 -428 -1079 -32 -378 66 -792 266 -1126 l66 -108 -32
-96 c-18 -53 -69 -231 -114 -397 l-81 -301 -162 -205 c-89 -113 -166 -218
-172 -232 -15 -40 -12 -123 5 -157 15 -29 15 -31 -14 -67 -16 -20 -131 -138
-255 -262 -241 -240 -253 -256 -226 -321 27 -63 -115 -59 1966 -59 l1896 0 34
34 c19 19 34 44 34 58 0 12 14 210 30 438 16 228 30 436 30 463 0 43 -4 52
-55 106 -60 66 -101 140 -111 198 -5 32 0 47 30 97 68 113 109 262 89 328 -9
32 -7 35 91 139 133 139 226 269 226 316 0 45 -14 69 -50 88 -67 35 -96 19
-193 -110 -41 -55 -119 -143 -173 -195 l-97 -95 -15 35 c-14 32 -12 49 22 235
55 301 116 462 255 672 33 51 69 110 80 131 67 132 67 342 -1 476 -37 73 -89
136 -132 158 -51 27 -137 29 -182 5 -18 -9 -116 -84 -218 -167 -113 -91 -188
-146 -190 -138 -3 7 -12 141 -21 298 -9 157 -23 316 -31 354 -26 133 -92 209
-264 307 -139 79 -165 89 -245 89 -81 0 -144 -22 -200 -72 -41 -36 -70 -89
-276 -499 -146 -292 -242 -474 -265 -499 -27 -29 -86 -65 -232 -139 -204 -104
-275 -153 -347 -240 -23 -29 -107 -164 -186 -302 l-144 -249 -22 38 c-83 136
-170 400 -198 600 -23 162 -16 420 15 567 75 356 240 658 492 901 467 451
1133 603 1748 398 532 -177 948 -611 1105 -1150 48 -166 66 -302 66 -503 0
-179 1 -184 24 -207 44 -43 106 -44 150 0 30 30 40 131 32 311 -9 186 -41 359
-103 545 -39 116 -176 384 -251 490 -89 125 -330 366 -451 450 -393 275 -860
398 -1327 349z m453 -1025 c23 -14 42 -27 42 -31 0 -3 -14 -31 -31 -63 -45
-86 -90 -99 -175 -54 -27 14 -51 27 -52 29 -2 2 11 32 29 66 50 93 95 106 187
53z m252 -531 c14 -219 26 -342 36 -370 27 -74 115 -134 194 -133 55 1 108 34
296 186 157 126 197 155 205 143 6 -8 22 -39 37 -69 22 -46 26 -69 26 -135 0
-95 -12 -125 -106 -271 -148 -226 -217 -408 -274 -719 -40 -223 -42 -297 -6
-377 25 -58 94 -133 144 -159 22 -11 38 -27 38 -37 -1 -27 -34 -93 -79 -151
-47 -62 -50 -90 -26 -206 18 -86 62 -178 118 -246 l42 -51 -27 -377 c-15 -207
-27 -377 -27 -378 -1 -2 -130 -3 -287 -3 -268 0 -286 1 -281 18 2 9 69 172
147 362 78 190 146 358 151 374 10 36 -10 89 -43 109 -12 8 -66 22 -118 31
-288 51 -538 184 -756 401 -215 214 -345 454 -399 735 -22 113 -32 138 -66
155 -75 39 -149 -6 -149 -90 0 -108 66 -336 145 -500 68 -143 176 -296 294
-418 229 -236 463 -372 817 -473 l32 -9 -141 -343 -141 -342 -1296 0 -1295 0
140 142 c77 78 141 145 143 147 2 3 15 -3 30 -13 118 -76 243 -96 374 -57 180
54 509 166 575 196 216 99 413 278 546 497 48 79 50 127 8 169 -22 22 -39 29
-68 29 -53 0 -71 -15 -130 -112 -98 -161 -261 -309 -427 -387 -117 -56 -580
-203 -637 -203 -81 0 -140 40 -192 132 l-25 45 219 275 c227 287 294 359 375
404 57 32 170 71 233 80 l43 7 -7 -58 c-20 -163 -100 -277 -238 -337 -98 -44
-125 -114 -68 -178 23 -26 37 -33 68 -33 64 0 184 66 263 144 121 120 164 223
185 441 13 134 13 148 -3 180 -29 59 -54 66 -174 52 -160 -20 -268 -49 -363
-97 -47 -24 -85 -40 -85 -34 0 13 56 216 75 274 59 173 98 252 280 565 168
290 199 325 367 410 64 33 118 60 121 60 2 0 -9 -56 -25 -123 -28 -116 -29
-126 -15 -160 22 -50 68 -73 119 -58 21 7 45 22 53 34 8 13 31 87 51 166 56
224 83 293 256 642 l161 327 72 -35 c170 -80 321 -40 418 113 36 56 42 62 49
45 4 -11 17 -168 28 -348z"/>
<path d="M4603 2680 c-26 -10 -63 -66 -63 -93 0 -35 31 -79 67 -93 47 -20 97
-4 124 40 23 38 24 58 4 96 -25 49 -82 70 -132 50z"/>
</g>
</svg>
